<?xml version="1.0" encoding="utf-8"?>
<!-- Generator: Adobe Illustrator 22.1.0, SVG Export Plug-In . SVG Version: 6.00 Build 0)  -->
<svg version="1.1" id="Layer_1" xmlns="http://www.w3.org/2000/svg" xmlns:xlink="http://www.w3.org/1999/xlink" x="0px" y="0px"
	 viewBox="0 0 144.9 75.8" style="enable-background:new 0 0 144.9 75.8;" xml:space="preserve">
<style type="text/css">
	.st0{fill:#FFFFFF;}
	.st1{fill:#009245;}
	.st2{fill:#80DE84;}
</style>
<title>bootspot</title>
<g>
	<g>
		<path class="st0" d="M0,4.5h5.4c2.3,0,4.1,1.6,4.1,4c0,1.7-0.9,2.9-2.1,3.5v0c1.6,0.4,2.7,2,2.7,4.1c0,2.7-1.9,4.4-4.5,4.4H0V4.5z
			 M5.4,11.7c1.8,0,3.1-1.2,3.1-3.2c0-1.9-1.2-3.1-3.1-3.1H1v6.3H5.4z M5.6,19.7c2.2,0,3.5-1.3,3.5-3.5s-1.5-3.6-3.6-3.6H1v7.1H5.6z
			"/>
		<path class="st0" d="M18.9,8.9c3.3,0,6,2.6,6,6c0,3.4-2.7,6.1-6,6.1s-6-2.7-6-6.1C12.9,11.5,15.6,8.9,18.9,8.9z M18.9,20
			c2.7,0,4.9-2.2,4.9-5.2c0-2.9-2.2-5-4.9-5S14,12,14,14.8C14,17.7,16.2,20,18.9,20z"/>
		<path class="st0" d="M33.2,8.9c3.3,0,6,2.6,6,6c0,3.4-2.7,6.1-6,6.1s-6-2.7-6-6.1C27.2,11.5,29.9,8.9,33.2,8.9z M33.2,20
			c2.7,0,4.9-2.2,4.9-5.2c0-2.9-2.2-5-4.9-5s-4.9,2.2-4.9,5C28.2,17.7,30.4,20,33.2,20z"/>
		<path class="st0" d="M42.7,10.1h-1.5V9.2h1.5V5.9h1v3.3h3v0.9h-3v6.3c0,3,1.8,3.4,2.7,3.4c0.3,0,0.5,0,0.5,0v0.9c0,0-0.2,0-0.6,0
			c-1.2,0-3.7-0.4-3.7-4.3V10.1z"/>
		<path class="st0" d="M49.9,16.4c0,0,1.8,1.7,4.1,1.7c1.2,0,2.4-0.6,2.4-2c0-2.9-7.7-2.4-7.7-7.4C48.7,6,51,4,54.2,4
			C57.4,4,59,5.8,59,5.8l-1.3,2.4c0,0-1.6-1.4-3.6-1.4c-1.4,0-2.5,0.8-2.5,2c0,2.9,7.7,2.2,7.7,7.4c0,2.6-2,4.8-5.4,4.8
			c-3.6,0-5.6-2.2-5.6-2.2L49.9,16.4z"/>
		<path class="st0" d="M61.9,8.9h2.7v0.9c0,0.4,0,0.8,0,0.8h0c0,0,1-1.9,3.8-1.9c3.2,0,5.2,2.5,5.2,6.1c0,3.7-2.3,6.1-5.4,6.1
			c-2.3,0-3.4-1.6-3.4-1.6h0c0,0,0,0.4,0,1v4.9h-2.9V8.9z M67.6,18.4c1.6,0,2.9-1.3,2.9-3.6c0-2.2-1.2-3.7-2.9-3.7
			c-1.5,0-2.9,1.1-2.9,3.7C64.7,16.7,65.7,18.4,67.6,18.4z"/>
		<path class="st0" d="M81.5,8.6c3.6,0,6.5,2.6,6.5,6.1c0,3.6-2.9,6.1-6.4,6.1c-3.6,0-6.5-2.5-6.5-6.1C75,11.2,77.9,8.6,81.5,8.6z
			 M81.5,18.4c1.9,0,3.5-1.5,3.5-3.7c0-2.2-1.6-3.7-3.5-3.7c-1.9,0-3.5,1.5-3.5,3.7C78,16.9,79.6,18.4,81.5,18.4z"/>
		<path class="st0" d="M90.8,11.4h-1.5V9.1h1.6V5.7h2.9v3.4h2.7v2.3h-2.7V16c0,1.9,1.5,2.2,2.3,2.2c0.3,0,0.5,0,0.5,0v2.6
			c0,0-0.3,0.1-0.9,0.1c-1.6,0-4.9-0.5-4.9-4.4V11.4z"/>
	</g>
	<path class="st1" d="M144.8,19.8l-8.7-9.3v-0.3c0-0.3-0.1-0.6-0.3-0.8l-10.5-9.1c-0.4-0.3-0.9-0.3-1.3,0l-10.5,9.1
		c-0.2,0.2-0.3,0.4-0.3,0.7l-9.3,9.7c-0.2,0.2-0.2,0.5,0,0.7c0.1,0.1,0.2,0.1,0.3,0.1c0.1,0,0.3-0.1,0.4-0.2l8.6-8.9v8.1
		c0,0.6,0.4,1,1,1h7.7c0.5-1.6,1.6-5.5,2.9-10.5c0,0,0,7.1,2.4,10.5h8c0.6,0,1-0.4,1-1v-7.8l8,8.5c0.1,0.1,0.2,0.2,0.4,0.2
		c0.1,0,0.2,0,0.3-0.1C144.9,20.3,145,20,144.8,19.8z"/>
	<g>
		<g>
			<path class="st0" d="M0,55.1h5.4c2.3,0,4.1,1.6,4.1,4c0,1.7-0.9,2.9-2.1,3.5v0c1.6,0.4,2.7,2,2.7,4.1c0,2.7-1.9,4.4-4.5,4.4H0
				V55.1z M5.4,62.3c1.8,0,3.1-1.2,3.1-3.2c0-1.9-1.2-3.1-3.1-3.1H1v6.3H5.4z M5.6,70.3c2.2,0,3.5-1.3,3.5-3.5s-1.5-3.6-3.6-3.6H1
				v7.1H5.6z"/>
			<path class="st0" d="M18.9,59.5c3.3,0,6,2.6,6,6c0,3.4-2.7,6.1-6,6.1s-6-2.7-6-6.1C12.9,62.1,15.6,59.5,18.9,59.5z M18.9,70.6
				c2.7,0,4.9-2.2,4.9-5.2c0-2.9-2.2-5-4.9-5s-4.9,2.2-4.9,5C14,68.3,16.2,70.6,18.9,70.6z"/>
			<path class="st0" d="M33.2,59.5c3.3,0,6,2.6,6,6c0,3.4-2.7,6.1-6,6.1s-6-2.7-6-6.1C27.2,62.1,29.9,59.5,33.2,59.5z M33.2,70.6
				c2.7,0,4.9-2.2,4.9-5.2c0-2.9-2.2-5-4.9-5s-4.9,2.2-4.9,5C28.2,68.3,30.4,70.6,33.2,70.6z"/>
			<path class="st0" d="M42.7,60.7h-1.5v-0.9h1.5v-3.3h1v3.3h3v0.9h-3V67c0,3,1.8,3.4,2.7,3.4c0.3,0,0.5,0,0.5,0v0.9
				c0,0-0.2,0-0.6,0c-1.2,0-3.7-0.4-3.7-4.3V60.7z"/>
			<path class="st0" d="M49.9,67.1c0,0,1.8,1.7,4.1,1.7c1.2,0,2.4-0.6,2.4-2c0-2.9-7.7-2.4-7.7-7.4c0-2.7,2.3-4.7,5.5-4.7
				c3.2,0,4.9,1.7,4.9,1.7l-1.3,2.4c0,0-1.6-1.4-3.6-1.4c-1.4,0-2.5,0.8-2.5,2c0,2.9,7.7,2.2,7.7,7.4c0,2.6-2,4.8-5.4,4.8
				c-3.6,0-5.6-2.2-5.6-2.2L49.9,67.1z"/>
			<path class="st0" d="M61.9,59.5h2.7v0.9c0,0.4,0,0.8,0,0.8h0c0,0,1-1.9,3.8-1.9c3.2,0,5.2,2.5,5.2,6.1c0,3.7-2.3,6.1-5.4,6.1
				c-2.3,0-3.4-1.6-3.4-1.6h0c0,0,0,0.4,0,1v4.9h-2.9V59.5z M67.6,69.1c1.6,0,2.9-1.3,2.9-3.6c0-2.2-1.2-3.7-2.9-3.7
				c-1.5,0-2.9,1.1-2.9,3.7C64.7,67.3,65.7,69.1,67.6,69.1z"/>
			<path class="st0" d="M81.5,59.2c3.6,0,6.5,2.6,6.5,6.1c0,3.6-2.9,6.1-6.4,6.1c-3.6,0-6.5-2.5-6.5-6.1
				C75,61.8,77.9,59.2,81.5,59.2z M81.5,69c1.9,0,3.5-1.5,3.5-3.7c0-2.2-1.6-3.7-3.5-3.7c-1.9,0-3.5,1.5-3.5,3.7
				C78,67.6,79.6,69,81.5,69z"/>
			<path class="st0" d="M90.8,62h-1.5v-2.3h1.6v-3.4h2.9v3.4h2.7V62h-2.7v4.6c0,1.9,1.5,2.2,2.3,2.2c0.3,0,0.5,0,0.5,0v2.6
				c0,0-0.3,0.1-0.9,0.1c-1.6,0-4.9-0.5-4.9-4.4V62z"/>
		</g>
		<path class="st2" d="M144.8,70.4l-8.7-9.3v-0.3c0-0.3-0.1-0.6-0.3-0.8l-10.5-9.1c-0.4-0.3-0.9-0.3-1.3,0l-10.5,9.1
			c-0.2,0.2-0.3,0.4-0.3,0.7l-9.3,9.7c-0.2,0.2-0.2,0.5,0,0.7c0.1,0.1,0.2,0.1,0.3,0.1c0.1,0,0.3-0.1,0.4-0.2l8.6-8.9v8.1
			c0,0.6,0.4,1,1,1h7.7c0.5-1.6,1.6-5.5,2.9-10.5c0,0,0,7.1,2.4,10.5h8c0.6,0,1-0.4,1-1v-7.8l8,8.5c0.1,0.1,0.2,0.2,0.4,0.2
			c0.1,0,0.2,0,0.3-0.1C144.9,70.9,145,70.6,144.8,70.4z"/>
	</g>
</g>
</svg>
