<svg xmlns="http://www.w3.org/2000/svg" viewBox="0 0 144.89 75.77"><defs><style>.cls-1{fill:#fff;}.cls-2{fill:#009245;}.cls-3{fill:#80de84;}</style></defs><title>bootspot</title><g id="Layer_2" data-name="Layer 2"><g id="Layer_1-2" data-name="Layer 1"><path class="cls-1" d="M0,4.46H5.4a3.84,3.84,0,0,1,4.07,4A3.68,3.68,0,0,1,7.38,12v0a4,4,0,0,1,2.74,4.07,4.27,4.27,0,0,1-4.49,4.44H0Zm5.38,7.17A3,3,0,0,0,8.44,8.48a2.89,2.89,0,0,0-3.08-3.1H1v6.25Zm.16,8a3.28,3.28,0,0,0,3.54-3.52,3.37,3.37,0,0,0-3.56-3.56H1v7.08Z"/><path class="cls-1" d="M18.88,8.78a5.92,5.92,0,0,1,6,6,6,6,0,1,1-11.91,0A5.91,5.91,0,0,1,18.88,8.78Zm0,11.1a5,5,0,0,0,4.95-5.15,4.95,4.95,0,1,0-9.89,0A5,5,0,0,0,18.88,19.88Z"/><path class="cls-1" d="M33.14,8.78a5.92,5.92,0,0,1,6,6,6,6,0,1,1-11.91,0A5.91,5.91,0,0,1,33.14,8.78Zm0,11.1a5,5,0,0,0,5-5.15,4.95,4.95,0,1,0-9.89,0A5,5,0,0,0,33.14,19.88Z"/><path class="cls-1" d="M42.66,10H41.15V9.12h1.51V5.86h1V9.12h3V10h-3v6.32c0,3,1.82,3.43,2.74,3.43a2.52,2.52,0,0,0,.53-.05v.9a3.74,3.74,0,0,1-.58,0c-1.2,0-3.66-.43-3.66-4.25Z"/><path class="cls-1" d="M49.93,16.37A6.54,6.54,0,0,0,54,18.09c1.24,0,2.37-.64,2.37-2,0-2.92-7.7-2.41-7.7-7.42C48.67,6,51,4,54.14,4A7,7,0,0,1,59,5.7L57.73,8.11a6,6,0,0,0-3.61-1.42c-1.38,0-2.46.8-2.46,2,0,2.9,7.68,2.18,7.68,7.4,0,2.6-2,4.79-5.38,4.79a7.91,7.91,0,0,1-5.64-2.23Z"/><path class="cls-1" d="M61.85,8.82h2.66v.86c0,.43,0,.8,0,.8h0a4.22,4.22,0,0,1,3.78-1.93c3.17,0,5.19,2.5,5.19,6.14s-2.27,6.14-5.36,6.14a4,4,0,0,1-3.35-1.61h0a9.23,9.23,0,0,1,0,1v4.92H61.85Zm5.75,9.55c1.61,0,2.94-1.31,2.94-3.64s-1.2-3.68-2.92-3.68c-1.52,0-3,1.11-3,3.71C64.67,16.57,65.66,18.37,67.6,18.37Z"/><path class="cls-1" d="M81.46,8.55A6.15,6.15,0,1,1,75,14.69,6.18,6.18,0,0,1,81.46,8.55Zm0,9.79A3.48,3.48,0,0,0,85,14.69a3.49,3.49,0,1,0-7,0A3.49,3.49,0,0,0,81.49,18.34Z"/><path class="cls-1" d="M90.78,11.33H89.26V9h1.59V5.63H93.7V9h2.67v2.32H93.7v4.55A2.08,2.08,0,0,0,96,18.09a3.12,3.12,0,0,0,.53,0V20.6a4.92,4.92,0,0,1-.9.07c-1.63,0-4.87-.49-4.87-4.42Z"/><path class="cls-2" d="M144.75,19.69,136,10.4v-.27a1,1,0,0,0-.35-.75L125.16.25a1,1,0,0,0-1.32,0L113.35,9.38a1,1,0,0,0-.33.7l-9.3,9.68a.49.49,0,0,0,0,.7.45.45,0,0,0,.34.14.49.49,0,0,0,.36-.15L113,11.53v8.14a1,1,0,0,0,1,1h7.69c.45-1.58,1.56-5.48,2.9-10.5,0,0,0,7.14,2.41,10.5h8a1,1,0,0,0,1-1V11.86l8,8.51a.49.49,0,0,0,.37.16.47.47,0,0,0,.34-.14A.49.49,0,0,0,144.75,19.69Z"/><path class="cls-1" d="M0,55.07H5.4a3.85,3.85,0,0,1,4.07,4,3.66,3.66,0,0,1-2.09,3.51v0a4,4,0,0,1,2.74,4.07,4.27,4.27,0,0,1-4.49,4.44H0Zm5.38,7.18A3,3,0,0,0,8.44,59.1,2.9,2.9,0,0,0,5.36,56H1v6.26Zm.16,8a3.28,3.28,0,0,0,3.54-3.52,3.37,3.37,0,0,0-3.56-3.56H1v7.08Z"/><path class="cls-1" d="M18.88,59.4a5.91,5.91,0,0,1,6,5.95,6,6,0,1,1-11.91,0A5.9,5.9,0,0,1,18.88,59.4Zm0,11.1a5,5,0,0,0,4.95-5.15,4.95,4.95,0,1,0-9.89,0A5,5,0,0,0,18.88,70.5Z"/><path class="cls-1" d="M33.14,59.4a5.91,5.91,0,0,1,6,5.95,6,6,0,1,1-11.91,0A5.9,5.9,0,0,1,33.14,59.4Zm0,11.1a5,5,0,0,0,5-5.15,4.95,4.95,0,1,0-9.89,0A5,5,0,0,0,33.14,70.5Z"/><path class="cls-1" d="M42.66,60.61H41.15v-.87h1.51V56.47h1v3.27h3v.87h-3v6.33c0,3,1.82,3.42,2.74,3.42a3.12,3.12,0,0,0,.53,0v.89a3,3,0,0,1-.58.05c-1.2,0-3.66-.44-3.66-4.25Z"/><path class="cls-1" d="M49.93,67A6.53,6.53,0,0,0,54,68.71c1.24,0,2.37-.65,2.37-2,0-2.92-7.7-2.41-7.7-7.43,0-2.71,2.34-4.73,5.47-4.73A7,7,0,0,1,59,56.31l-1.29,2.42a6,6,0,0,0-3.61-1.43c-1.38,0-2.46.81-2.46,2,0,2.89,7.68,2.18,7.68,7.4,0,2.6-2,4.78-5.38,4.78a7.91,7.91,0,0,1-5.64-2.23Z"/><path class="cls-1" d="M61.85,59.44h2.66v.85c0,.44,0,.81,0,.81h0a4.22,4.22,0,0,1,3.78-1.93c3.17,0,5.19,2.5,5.19,6.13s-2.27,6.14-5.36,6.14a4,4,0,0,1-3.35-1.6h0a9.23,9.23,0,0,1,0,1v4.92H61.85ZM67.6,69c1.61,0,2.94-1.31,2.94-3.63s-1.2-3.68-2.92-3.68c-1.52,0-3,1.11-3,3.7C64.67,67.19,65.66,69,67.6,69Z"/><path class="cls-1" d="M81.46,59.17A6.14,6.14,0,1,1,75,65.3,6.17,6.17,0,0,1,81.46,59.17Zm0,9.79A3.66,3.66,0,1,0,78,65.3,3.49,3.49,0,0,0,81.49,69Z"/><path class="cls-1" d="M90.78,62H89.26V59.63h1.59V56.24H93.7v3.39h2.67V62H93.7V66.5A2.09,2.09,0,0,0,96,68.71a2.52,2.52,0,0,0,.53,0v2.55a4.92,4.92,0,0,1-.9.07c-1.63,0-4.87-.48-4.87-4.41Z"/><path class="cls-3" d="M144.75,70.31,136,61v-.27a1,1,0,0,0-.35-.76l-10.5-9.13a1,1,0,0,0-1.32,0L113.35,60a1,1,0,0,0-.33.71l-9.3,9.67a.5.5,0,0,0,0,.71.5.5,0,0,0,.7,0L113,62.15v8.14a1,1,0,0,0,1,1h7.69c.45-1.58,1.56-5.49,2.9-10.5,0,0,0,7.14,2.41,10.5h8a1,1,0,0,0,1-1V62.47L144,71a.52.52,0,0,0,.37.16.51.51,0,0,0,.34-.14A.49.49,0,0,0,144.75,70.31Z"/></g></g></svg>