<svg xmlns="http://www.w3.org/2000/svg" viewBox="0 0 50 50">
  <defs>
    <style>
      .cls-1 {
        fill: #1fc125;
      }
    </style>
  </defs>
  <path id="Path_2" data-name="Path 2" class="cls-1" d="M25,0A25,25,0,1,0,50,25,25,25,0,0,0,25,0Zm0,4.839A20.161,20.161,0,1,1,4.839,25,20.156,20.156,0,0,1,25,4.839M39.133,17.974l-2.268-2.288a1.22,1.22,0,0,0-1.714-.01L20.9,29.808,14.869,23.73a1.22,1.22,0,0,0-1.714-.01l-2.288,2.268a1.22,1.22,0,0,0-.01,1.714l9.153,9.224a1.22,1.22,0,0,0,1.714.01l17.4-17.258a1.2,1.2,0,0,0,.01-1.7Z"/>
</svg>
